<svg width="487" height="270" viewBox="0 0 487 270" fill="none" xmlns="http://www.w3.org/2000/svg">
<path fill-rule="evenodd" clip-rule="evenodd" d="M243.291 17.1353C368.225 17.1353 469.566 69.8594 469.566 135.04C469.566 200.22 368.225 252.891 243.291 252.891C118.358 252.891 17.0962 200.101 17.0962 135C17.0962 69.899 118.358 17.1353 243.291 17.1353ZM243.291 0C377.654 0 486.583 60.4614 486.583 135C486.583 209.539 377.693 270 243.291 270C108.889 270 0 209.578 0 135C0 60.4218 108.968 0 243.291 0ZM243.291 180.58C245.895 180.58 248.44 181.355 250.604 182.806C252.768 184.257 254.454 186.32 255.447 188.732C256.441 191.145 256.697 193.798 256.185 196.357C255.672 198.915 254.413 201.264 252.567 203.105C250.721 204.945 248.372 206.196 245.816 206.697C243.261 207.198 240.615 206.927 238.213 205.92C235.811 204.912 233.762 203.212 232.325 201.036C230.888 198.86 230.127 196.305 230.141 193.695C230.137 191.966 230.475 190.254 231.136 188.657C231.796 187.06 232.766 185.609 233.988 184.39C235.211 183.171 236.663 182.206 238.26 181.552C239.856 180.898 241.567 180.568 243.291 180.58ZM243.291 171.076C247.758 171.074 252.126 172.399 255.841 174.885C259.556 177.371 262.453 180.905 264.163 185.041C265.874 189.177 266.322 193.729 265.451 198.12C264.581 202.512 262.43 206.545 259.271 209.711C256.112 212.877 252.088 215.033 247.706 215.906C243.325 216.779 238.784 216.329 234.657 214.615C230.531 212.9 227.005 209.997 224.524 206.274C222.044 202.55 220.722 198.172 220.724 193.695C220.716 190.721 221.293 187.775 222.424 185.025C223.555 182.275 225.216 179.777 227.313 177.673C229.41 175.568 231.901 173.9 234.643 172.764C237.385 171.627 240.324 171.045 243.291 171.05V171.076ZM243.291 161.52C249.644 161.52 255.853 163.408 261.135 166.946C266.416 170.483 270.532 175.511 272.963 181.393C275.393 187.276 276.028 193.748 274.788 199.993C273.548 206.237 270.488 211.972 265.995 216.473C261.502 220.974 255.779 224.039 249.549 225.279C243.318 226.52 236.861 225.881 230.993 223.442C225.125 221.004 220.11 216.876 216.583 211.581C213.056 206.286 211.174 200.062 211.177 193.695C211.168 189.465 211.993 185.275 213.604 181.365C215.214 177.455 217.579 173.902 220.563 170.911C223.547 167.919 227.09 165.547 230.99 163.931C234.891 162.315 239.071 161.487 243.291 161.494V161.52ZM243.291 151.964C251.526 151.967 259.574 154.416 266.419 159.003C273.265 163.59 278.599 170.109 281.748 177.734C284.898 185.36 285.72 193.75 284.112 201.845C282.504 209.939 278.538 217.373 272.714 223.208C266.891 229.043 259.472 233.016 251.396 234.625C243.32 236.234 234.949 235.407 227.342 232.248C219.735 229.089 213.233 223.741 208.658 216.878C204.084 210.016 201.643 201.948 201.643 193.695C201.632 188.21 202.702 182.776 204.791 177.706C206.881 172.636 209.948 168.029 213.817 164.15C217.687 160.27 222.282 157.194 227.34 155.099C232.398 153.003 237.818 151.929 243.291 151.938V151.964ZM285.374 223.01C281.818 228.139 277.362 232.578 272.223 236.112C283.209 235.373 293.896 234.24 304.285 232.711L285.374 222.983V223.01ZM293.265 205.07C292.447 208.678 291.244 212.187 289.675 215.536L311.676 225.395C316.555 227.583 320.882 229.956 328.47 228.308C334.37 227.052 340.121 225.659 345.724 224.13L293.265 205.044V205.07ZM293.975 186.169C294.334 188.661 294.515 191.177 294.514 193.695C294.514 194.789 294.514 195.87 294.409 196.951L352.273 214.666C358.085 216.432 364.464 218.62 374.248 214.864C379.508 212.821 384.598 210.672 389.437 208.405L293.962 186.142L293.975 186.169ZM287.636 167.966C289.513 171.193 291.026 174.619 292.147 178.181L394.29 196.634C398.669 197.425 405.258 200.352 412.188 195.83C417.736 192.247 423.011 188.255 427.969 183.888L287.623 167.939L287.636 167.966ZM450.878 151.964H273.131C276.625 154.481 279.793 157.426 282.56 160.729L425.247 169.956C430.244 170.272 442.159 169.429 445.118 163.972C447.347 160.116 449.265 156.087 450.852 151.924L450.878 151.964ZM201.314 223.01C204.87 228.139 209.326 232.578 214.465 236.112C203.484 235.373 192.766 234.227 182.403 232.711L201.274 223.01H201.314ZM193.423 205.07C194.236 208.678 195.436 212.187 197 215.536L174.907 225.395C170.028 227.583 165.701 229.956 158.113 228.308C152.221 227.052 146.475 225.659 140.872 224.13L193.371 205.044L193.423 205.07ZM192.713 186.169C192.349 188.661 192.165 191.176 192.161 193.695C192.161 194.789 192.161 195.87 192.279 196.951L134.415 214.666C128.603 216.432 122.224 218.62 112.44 214.864C107.18 212.821 102.09 210.672 97.2508 208.405L192.726 186.142L192.713 186.169ZM199.052 167.966C197.17 171.19 195.656 174.617 194.541 178.181L92.3981 196.634C88.0057 197.425 81.4303 200.352 74.4998 195.83C68.95 192.249 63.6749 188.258 58.7187 183.888L199.091 167.9L199.052 167.966ZM35.7967 151.938H213.531C210.035 154.458 206.864 157.402 204.089 160.703L61.3883 169.93C56.4041 170.246 44.4894 169.402 41.5305 163.946C39.2961 160.092 37.3785 156.063 35.7967 151.898V151.938ZM132.429 49.6265V105.62C132.524 108.229 132.37 110.842 131.969 113.423C131.049 118.01 127.945 120.237 122.54 120.237C116.78 120.237 113.098 117.39 112.414 112.434C112.076 109.018 111.997 105.581 112.177 102.153H98.2634V105.237C98.2634 117.759 99.9862 123.335 105.51 128.291C109.652 132.008 115.623 133.88 122.869 133.88C132.429 133.88 139.676 130.518 143.818 124.205C146.685 120 147.606 115.65 147.606 106.371V49.6265H132.429ZM175.104 114.675H203.181L208.349 132.272H224.131L198.131 49.6397H181.206L154.168 132.272H169.949L175.104 114.675ZM178.563 102.654L189.083 65.6151L199.775 102.654H178.563ZM221.592 49.6397L244.475 132.272H259.204L271.973 68.8313L284.519 132.272H298.893L321.092 49.6397H306.139L291.766 113.185L279.93 49.6397H264.333L252.247 113.185L237.071 49.6397H221.592ZM339.385 114.675H367.462L372.643 132.272H388.425L362.425 49.6397H345.487L318.449 132.272H334.23L339.385 114.675ZM342.844 102.654L353.43 65.6151L364.122 102.654H342.844Z" fill="white"/>
</svg>
